# xmcd CD database file
#
# Track frame offsets:
#	150
#	54139
#	87823
#	150493
#	174151
#	216174
#	262920
#
# Disc length: 4615 seconds
#
# Revision: 2
# Processed by: cddbd v1.5.2PL0 Copyright (c) Steve Scherf et al.
# Submitted via: CDex 1.75
#
DISCID=47120507
DTITLE=Chick Corea Trio - Trilogy - Disc 1
DYEAR=2014
DGENRE=Jazz
TTITLE0=You're My Everything
TTITLE1=Recorda Me
TTITLE2=The Song is You
TTITLE3=Work
TTITLE4=My Foolish Heart
TTITLE5=Fingerprints
TTITLE6=Spain
EXTD=YEAR: 2014
EXTT0=
EXTT1=
EXTT2=
EXTT3=
EXTT4=
EXTT5=
EXTT6=
PLAYORDER=
